<mxfile host="app.diagrams.net" modified="2024-07-07T14:32:24.454Z" agent="Mozilla/5.0 (Windows NT 10.0; Win64; x64) AppleWebKit/537.36 (KHTML, like Gecko) Chrome/126.0.0.0 Safari/537.36" etag="PYakXaW6x8xlLHLDaH2R" version="24.6.4" type="device">
  <diagram name="Page-1" id="y8omWeSN0PWs4WmpnNCJ">
    <mxGraphModel dx="794" dy="412" grid="1" gridSize="10" guides="1" tooltips="1" connect="1" arrows="1" fold="1" page="1" pageScale="1" pageWidth="850" pageHeight="1100" math="0" shadow="0">
      <root>
        <mxCell id="0" />
        <mxCell id="1" parent="0" />
        <mxCell id="yysfQZHxvM84uPMWqZXu-1" value="&#xa;&lt;p style=&quot;margin-bottom: 0cm; font-size: 9px;&quot;&gt;&lt;font style=&quot;font-size: 9px;&quot;&gt;Создать диаграмму&#xa;классов с родительским классом &quot;Животные&quot;,&#xa;и двумя подклассами: &quot;Pets&quot; и &quot;Pack&#xa;animals&quot;.&lt;/font&gt;&lt;/p&gt;&#xa;&lt;p style=&quot;margin-bottom: 0cm; font-size: 9px;&quot;&gt;&lt;font style=&quot;font-size: 9px;&quot;&gt;В составы классов&#xa;которых в случае Pets войдут классы:&#xa;собаки, кошки, хомяки, а в класс Pack animals&#xa;войдут: Лошади, верблюды и ослы).&lt;/font&gt;&lt;/p&gt;&#xa;&lt;p style=&quot;margin-bottom: 0cm; font-size: 9px;&quot;&gt;&lt;font style=&quot;font-size: 9px;&quot;&gt;Каждый тип&#xa;животных будет характеризоваться&#xa;(например, имена, даты рождения, выполняемые&#xa;команды и т.д)&lt;/font&gt;&lt;/p&gt;&#xa;&#xa;" style="text;html=1;whiteSpace=wrap;overflow=hidden;rounded=0;fontSize=9;" parent="1" vertex="1">
          <mxGeometry x="40" y="20" width="150" height="290" as="geometry" />
        </mxCell>
        <mxCell id="yysfQZHxvM84uPMWqZXu-8" style="edgeStyle=orthogonalEdgeStyle;rounded=0;orthogonalLoop=1;jettySize=auto;html=1;exitX=0.25;exitY=1;exitDx=0;exitDy=0;entryX=1;entryY=0.5;entryDx=0;entryDy=0;" parent="1" source="yysfQZHxvM84uPMWqZXu-2" target="yysfQZHxvM84uPMWqZXu-3" edge="1">
          <mxGeometry relative="1" as="geometry">
            <Array as="points">
              <mxPoint x="410" y="120" />
              <mxPoint x="350" y="120" />
            </Array>
          </mxGeometry>
        </mxCell>
        <mxCell id="yysfQZHxvM84uPMWqZXu-9" style="edgeStyle=orthogonalEdgeStyle;rounded=0;orthogonalLoop=1;jettySize=auto;html=1;exitX=0.75;exitY=1;exitDx=0;exitDy=0;entryX=0;entryY=0.5;entryDx=0;entryDy=0;" parent="1" source="yysfQZHxvM84uPMWqZXu-2" target="yysfQZHxvM84uPMWqZXu-4" edge="1">
          <mxGeometry relative="1" as="geometry">
            <Array as="points">
              <mxPoint x="470" y="120" />
              <mxPoint x="520" y="120" />
            </Array>
          </mxGeometry>
        </mxCell>
        <mxCell id="yysfQZHxvM84uPMWqZXu-2" value="Animals&lt;div&gt;&lt;br&gt;&lt;/div&gt;&lt;div&gt;animal_id&lt;div&gt;animal_type&lt;/div&gt;&lt;/div&gt;" style="rounded=0;whiteSpace=wrap;html=1;" parent="1" vertex="1">
          <mxGeometry x="380" width="120" height="60" as="geometry" />
        </mxCell>
        <mxCell id="yysfQZHxvM84uPMWqZXu-12" style="edgeStyle=orthogonalEdgeStyle;rounded=0;orthogonalLoop=1;jettySize=auto;html=1;exitX=0.5;exitY=1;exitDx=0;exitDy=0;entryX=0.5;entryY=0;entryDx=0;entryDy=0;" parent="1" source="yysfQZHxvM84uPMWqZXu-3" target="yysfQZHxvM84uPMWqZXu-10" edge="1">
          <mxGeometry relative="1" as="geometry" />
        </mxCell>
        <mxCell id="yysfQZHxvM84uPMWqZXu-3" value="Pets&lt;div&gt;&lt;br&gt;&lt;/div&gt;&lt;div&gt;id&lt;/div&gt;&lt;div&gt;pets_name&lt;/div&gt;" style="rounded=1;whiteSpace=wrap;html=1;" parent="1" vertex="1">
          <mxGeometry x="230" y="80" width="120" height="70" as="geometry" />
        </mxCell>
        <mxCell id="yysfQZHxvM84uPMWqZXu-13" style="edgeStyle=orthogonalEdgeStyle;rounded=0;orthogonalLoop=1;jettySize=auto;html=1;exitX=0.5;exitY=1;exitDx=0;exitDy=0;entryX=0.5;entryY=0;entryDx=0;entryDy=0;" parent="1" source="yysfQZHxvM84uPMWqZXu-4" target="yysfQZHxvM84uPMWqZXu-11" edge="1">
          <mxGeometry relative="1" as="geometry" />
        </mxCell>
        <mxCell id="yysfQZHxvM84uPMWqZXu-4" value="Pack animals&lt;div&gt;&lt;div&gt;&lt;br&gt;&lt;/div&gt;&lt;div&gt;id&lt;/div&gt;&lt;div&gt;pack_name&lt;/div&gt;&lt;/div&gt;" style="rounded=1;whiteSpace=wrap;html=1;" parent="1" vertex="1">
          <mxGeometry x="520" y="80" width="120" height="70" as="geometry" />
        </mxCell>
        <mxCell id="yysfQZHxvM84uPMWqZXu-15" style="edgeStyle=orthogonalEdgeStyle;rounded=0;orthogonalLoop=1;jettySize=auto;html=1;exitX=1;exitY=1;exitDx=0;exitDy=0;entryX=0.25;entryY=0;entryDx=0;entryDy=0;" parent="1" source="yysfQZHxvM84uPMWqZXu-10" target="yysfQZHxvM84uPMWqZXu-14" edge="1">
          <mxGeometry relative="1" as="geometry" />
        </mxCell>
        <mxCell id="yysfQZHxvM84uPMWqZXu-10" value="Dog&lt;div&gt;Cat&lt;/div&gt;&lt;div&gt;Hamster&lt;/div&gt;" style="whiteSpace=wrap;html=1;aspect=fixed;" parent="1" vertex="1">
          <mxGeometry x="250" y="180" width="80" height="80" as="geometry" />
        </mxCell>
        <mxCell id="yysfQZHxvM84uPMWqZXu-16" style="edgeStyle=orthogonalEdgeStyle;rounded=0;orthogonalLoop=1;jettySize=auto;html=1;exitX=0;exitY=1;exitDx=0;exitDy=0;entryX=0.75;entryY=0;entryDx=0;entryDy=0;" parent="1" source="yysfQZHxvM84uPMWqZXu-11" target="yysfQZHxvM84uPMWqZXu-14" edge="1">
          <mxGeometry relative="1" as="geometry" />
        </mxCell>
        <mxCell id="yysfQZHxvM84uPMWqZXu-11" value="Horse&lt;div&gt;Camel&lt;/div&gt;&lt;div&gt;Donkey&lt;/div&gt;" style="whiteSpace=wrap;html=1;aspect=fixed;" parent="1" vertex="1">
          <mxGeometry x="540" y="180" width="80" height="80" as="geometry" />
        </mxCell>
        <mxCell id="yysfQZHxvM84uPMWqZXu-14" value="name&lt;div&gt;birthDate&lt;/div&gt;&lt;div&gt;commands&lt;/div&gt;" style="rounded=1;whiteSpace=wrap;html=1;" parent="1" vertex="1">
          <mxGeometry x="380" y="320" width="120" height="60" as="geometry" />
        </mxCell>
      </root>
    </mxGraphModel>
  </diagram>
</mxfile>
